<?xml version="1.0" standalone="no"?>
<!DOCTYPE svg PUBLIC "-//W3C//DTD SVG 20010904//EN"
 "http://www.w3.org/TR/2001/REC-SVG-20010904/DTD/svg10.dtd">
<svg version="1.0" xmlns="http://www.w3.org/2000/svg"
 width="512.000000pt" height="512.000000pt" viewBox="0 0 512.000000 512.000000"
 preserveAspectRatio="xMidYMid meet">
<metadata>
Created by potrace 1.14, written by Peter Selinger 2001-2017
</metadata>
<g transform="translate(0.000000,512.000000) scale(0.100000,-0.100000)"
fill="#000000" stroke="none">
<path d="M2911 4241 c-12 -8 -47 -187 -66 -341 -3 -25 -15 -99 -26 -165 -11
-66 -22 -133 -24 -150 -4 -30 -31 -204 -40 -260 -3 -16 -6 -52 -8 -79 -2 -42
1 -49 20 -57 15 -5 27 -4 35 5 10 10 81 419 114 661 1 11 15 98 30 192 22 140
25 175 14 188 -14 17 -29 19 -49 6z"/>
<path d="M403 4014 c-3 -8 -2 -23 3 -33 9 -20 337 -271 353 -271 5 0 11 -7 15
-15 3 -8 12 -15 21 -15 8 0 15 -3 15 -7 0 -5 17 -19 37 -33 20 -14 46 -33 57
-42 12 -10 53 -41 91 -69 74 -53 108 -79 160 -119 18 -14 43 -32 55 -40 12 -8
28 -20 34 -25 9 -9 109 -83 336 -252 25 -18 57 -42 71 -53 158 -121 335 -249
350 -253 19 -5 49 16 49 34 0 11 -44 54 -81 81 -35 25 -212 156 -224 166 -5 4
-59 45 -120 90 -60 45 -114 85 -120 89 -5 5 -29 23 -51 41 -23 17 -47 32 -53
32 -6 0 -11 3 -11 8 0 4 -16 18 -35 31 -19 13 -45 32 -57 42 -32 26 -33 27
-133 99 -49 35 -101 75 -115 87 -14 13 -28 23 -31 23 -3 0 -22 13 -40 30 -19
16 -37 30 -40 30 -4 0 -22 13 -40 30 -19 16 -37 30 -41 30 -4 0 -13 6 -20 13
-7 7 -29 24 -48 37 -19 13 -46 35 -60 47 -14 13 -30 23 -37 23 -7 0 -13 3 -13
8 0 4 -17 18 -37 32 -20 14 -41 30 -47 35 -6 6 -40 32 -75 58 -66 48 -107 59
-118 31z"/>
<path d="M2114 3547 c-3 -14 0 -36 7 -49 7 -12 14 -25 14 -28 0 -3 18 -41 40
-85 21 -44 38 -83 37 -87 -1 -5 3 -8 9 -8 5 0 7 -4 4 -10 -3 -5 -1 -10 6 -10
7 0 10 -3 6 -6 -3 -4 7 -33 24 -65 16 -32 29 -62 30 -66 1 -16 33 -43 49 -43
24 0 40 22 36 47 -3 11 -19 49 -37 84 -18 35 -33 66 -32 69 0 3 -29 66 -66
140 -59 120 -69 135 -93 138 -22 3 -29 -2 -34 -21z"/>
<path d="M4258 3429 c-90 -18 -259 -63 -293 -79 -11 -5 -74 -30 -140 -55 -116
-45 -506 -232 -572 -274 -37 -23 -43 -55 -14 -71 16 -8 55 8 213 88 337 171
660 294 830 316 18 3 33 5 33 6 0 9 174 5 203 -5 47 -16 80 -62 77 -108 -3
-38 -23 -106 -36 -123 -5 -6 -6 -14 -2 -17 3 -4 0 -7 -7 -7 -7 0 -11 -3 -7 -6
3 -3 2 -11 -4 -18 -20 -24 -59 -87 -59 -96 0 -6 -4 -10 -8 -10 -4 0 -15 -12
-24 -27 -9 -16 -25 -38 -35 -50 -10 -12 -29 -36 -43 -53 -119 -152 -408 -427
-655 -625 -28 -22 -52 -42 -55 -45 -3 -3 -67 -52 -144 -109 -705 -526 -1476
-928 -1926 -1005 -208 -35 -321 7 -307 116 6 46 25 106 38 124 5 6 6 14 2 17
-3 4 -2 7 4 7 6 0 17 15 24 33 7 17 21 41 31 51 10 11 18 26 18 33 0 7 3 13 8
13 4 0 18 17 32 38 14 20 29 42 35 48 5 6 28 33 50 60 21 27 117 127 212 222
96 97 173 182 173 192 0 27 -47 35 -74 13 -33 -28 -185 -174 -225 -217 -20
-21 -52 -55 -71 -75 -51 -54 -102 -113 -125 -145 -11 -15 -30 -40 -42 -54 -13
-15 -23 -30 -23 -33 0 -3 -11 -19 -25 -35 -14 -16 -28 -39 -31 -51 -4 -13 -10
-23 -16 -23 -5 0 -6 -4 -3 -10 3 -5 2 -10 -4 -10 -20 0 -65 -143 -65 -206 1
-79 42 -154 89 -164 6 -1 15 -6 20 -10 30 -25 148 -31 260 -14 483 72 1342
524 2093 1101 75 58 139 108 142 112 3 3 28 24 55 45 28 22 57 47 66 55 9 9
45 41 80 71 77 66 307 296 367 365 23 28 48 57 55 65 38 44 77 99 77 109 0 6
4 11 8 11 9 0 102 151 106 171 1 8 7 23 13 34 6 11 11 23 12 28 1 4 1 8 2 10
13 44 21 120 15 153 -9 47 -73 110 -127 125 -67 18 -187 17 -281 -2z"/>
<path d="M2625 2949 c-79 -10 -135 -28 -206 -65 -77 -41 -199 -153 -199 -184
0 -6 -4 -10 -8 -10 -8 0 -47 -75 -47 -90 0 -3 -6 -18 -12 -35 -81 -202 9 -484
199 -627 20 -16 41 -28 47 -28 6 0 11 -4 11 -9 0 -9 104 -49 147 -57 15 -3 30
-7 35 -10 15 -10 165 -5 214 7 98 23 206 84 277 155 37 37 67 73 67 80 0 8 3
14 8 14 10 0 48 83 69 150 26 86 23 228 -6 318 -36 110 -104 207 -201 286 -30
24 -130 75 -158 81 -12 2 -26 6 -31 9 -8 5 -64 13 -136 20 -11 1 -42 -1 -70
-5z m200 -96 c28 -9 53 -16 58 -15 4 1 7 -3 7 -9 0 -5 5 -7 10 -4 6 3 10 2 10
-3 0 -5 13 -15 29 -22 52 -21 137 -115 175 -192 59 -120 70 -256 31 -369 -18
-52 -80 -154 -112 -186 -75 -76 -201 -135 -309 -146 -36 -4 -119 5 -164 16
-38 10 -137 55 -156 72 -117 103 -157 162 -187 277 -16 63 -15 198 2 241 6 15
13 38 15 50 5 28 51 103 94 151 119 136 332 195 497 139z"/>
<path d="M1667 2474 c-1 -1 -78 -5 -172 -8 -93 -4 -201 -9 -240 -11 -38 -2
-142 -7 -230 -11 -88 -3 -189 -7 -225 -9 -36 -2 -82 -4 -102 -5 -34 0 -68 -20
-68 -40 0 -5 7 -16 16 -24 13 -13 34 -15 117 -11 100 4 236 10 447 20 58 2
173 7 255 10 83 4 187 8 233 10 46 2 89 9 97 15 12 10 13 45 1 58 -5 5 -124
10 -129 6z"/>
</g>
</svg>
